# Blender 4.4.1
# www.blender.org
mtllib Player.mtl
o Cube
v 0.500000 0.500000 -0.300000
v 0.500000 -1.000000 -0.300000
v 0.500000 0.500000 0.300000
v 0.500000 -1.000000 0.300000
v -0.500000 0.500000 -0.300000
v -0.500000 -1.000000 -0.300000
v -0.500000 0.500000 0.300000
v -0.500000 -1.000000 0.300000
v -0.800000 0.498707 0.600000
v -0.800000 1.698707 0.600000
v -0.800000 0.498707 -0.600000
v -0.800000 1.698707 -0.600000
v 0.800000 0.498707 0.600000
v 0.800000 1.698707 0.600000
v 0.800000 0.498707 -0.600000
v 0.800000 1.698707 -0.600000
v -0.100000 -0.284294 0.514175
v -0.100000 -0.284294 0.714175
v -0.100000 0.015706 0.514175
v -0.100000 0.015706 0.714175
v 0.100000 -0.284294 0.514175
v 0.100000 -0.284294 0.714175
v 0.100000 0.015706 0.514175
v 0.100000 0.015706 0.714175
v -0.100000 -0.100000 1.116176
v -0.100000 0.100000 1.116176
v -0.100000 -0.100000 0.516176
v -0.100000 0.100000 0.516176
v 0.100000 -0.100000 1.116176
v 0.100000 0.100000 1.116176
v 0.100000 -0.100000 0.516176
v 0.100000 0.100000 0.516176
vn -0.0000 1.0000 -0.0000
vn -0.0000 -0.0000 1.0000
vn -1.0000 -0.0000 -0.0000
vn -0.0000 -1.0000 -0.0000
vn 1.0000 -0.0000 -0.0000
vn -0.0000 -0.0000 -1.0000
vt 0.715048 0.960943
vt 0.892321 0.854580
vt 0.892321 0.960943
vt 0.715048 0.588671
vt 0.892321 0.588671
vt 0.715048 0.854580
vt 0.608684 0.588671
vt 0.892321 0.482307
vt 0.715048 0.482307
vt 0.998684 0.854580
vt 0.998684 0.588671
vt 0.715048 0.216398
vt 0.608684 0.854580
vt 0.892321 0.216398
vt 0.498545 0.215345
vt 0.711272 0.428072
vt 0.498545 0.428072
vt 0.498545 0.853527
vt 0.214909 0.640800
vt 0.498545 0.640800
vt 0.002182 0.215345
vt 0.214909 0.428072
vt 0.002182 0.428072
vt 0.214909 0.215345
vt 0.498545 0.002618
vt 0.214909 0.002618
vt 0.711272 0.215345
vt 0.214909 0.853527
vt 0.902923 0.093771
vt 0.845334 0.031657
vt 0.900801 0.089913
vt 0.000000 0.000000
vt 0.961847 0.148968
vt 0.903964 0.086571
vt 0.963660 0.029102
vt 0.906665 0.090461
vt 0.845334 0.148997
vt 0.963684 0.029102
s 1
usemtl マテリアル.001
f 5/1/1 3/2/1 1/3/1
f 3/2/2 8/4/2 4/5/2
f 7/6/3 6/7/3 8/4/3
f 2/8/4 8/4/4 6/9/4
f 1/10/5 4/5/5 2/11/5
f 5/12/6 2/8/6 6/9/6
f 5/1/1 7/6/1 3/2/1
f 3/2/2 7/6/2 8/4/2
f 7/6/3 5/13/3 6/7/3
f 2/8/4 4/5/4 8/4/4
f 1/10/5 3/2/5 4/5/5
f 5/12/6 1/14/6 2/8/6
f 10/15/3 11/16/3 9/17/3
f 12/18/6 15/19/6 11/20/6
f 16/21/5 13/22/5 15/23/5
f 14/24/2 9/17/2 13/22/2
f 15/19/4 9/17/4 11/20/4
f 12/25/1 14/24/1 16/26/1
f 10/15/3 12/27/3 11/16/3
f 12/18/6 16/28/6 15/19/6
f 16/21/5 14/24/5 13/22/5
f 14/24/2 10/15/2 9/17/2
f 15/19/4 13/22/4 9/17/4
f 12/25/1 10/15/1 14/24/1
s 0
f 18/29/3 19/30/3 17/31/3
f 20/32/1 23/32/1 19/32/1
f 24/33/5 21/34/5 23/35/5
f 22/36/4 17/31/4 21/34/4
f 23/35/6 17/31/6 19/30/6
f 20/37/2 22/36/2 24/33/2
f 26/38/3 27/38/3 25/38/3
f 28/38/6 31/38/6 27/38/6
f 31/38/5 30/38/5 29/38/5
f 30/38/2 25/38/2 29/38/2
f 31/38/4 25/38/4 27/38/4
f 28/38/1 30/38/1 32/38/1
f 18/29/3 20/37/3 19/30/3
f 20/32/1 24/32/1 23/32/1
f 24/33/5 22/36/5 21/34/5
f 22/36/4 18/29/4 17/31/4
f 23/35/6 21/34/6 17/31/6
f 20/37/2 18/29/2 22/36/2
f 26/38/3 28/38/3 27/38/3
f 28/38/6 32/38/6 31/38/6
f 31/38/5 32/38/5 30/38/5
f 30/38/2 26/38/2 25/38/2
f 31/38/4 29/38/4 25/38/4
f 28/38/1 26/38/1 30/38/1
o Cube.001
v -0.270855 2.228353 0.409810
v -0.270855 2.228353 -0.409810
v 0.270855 2.228353 0.409810
v 0.270855 2.228353 -0.409810
v -0.456095 1.697360 0.499614
v 0.456095 1.697360 -0.499614
v -0.456095 1.697360 -0.499614
v 0.456095 1.697360 0.499614
v -0.000000 2.213712 -0.499614
v -0.372610 2.344712 0.000000
v 0.372610 2.344712 -0.000000
v -0.000000 2.213712 0.499614
v -0.000000 2.213712 0.000000
v -0.000000 1.697360 -0.688076
v 0.669637 1.697360 -0.000000
v -0.669637 1.697360 0.000000
v 0.000000 1.697360 0.688076
v -0.700023 1.745463 0.759831
v 0.700023 1.745463 -0.759831
v -0.700023 1.745463 -0.759831
v 0.700023 1.745463 0.759831
v -0.000000 1.644712 -1.000000
v 1.000000 1.876484 -0.000000
v -1.000000 1.876484 0.000000
v 0.000000 1.644712 1.000000
v -0.428309 1.777009 0.486144
v 0.428309 1.777009 -0.486144
v -0.428309 1.777009 -0.486143
v 0.428309 1.777009 0.486143
v -0.000000 1.774813 -0.659807
v 0.625083 1.794463 -0.000000
v -0.625083 1.794463 0.000000
v 0.000000 1.774813 0.659807
v -0.456095 1.697360 0.499614
v 0.456095 1.697360 -0.499614
v -0.000000 1.697360 -0.688076
v 0.669637 1.697360 -0.000000
v -0.669637 1.697360 0.000000
v 0.000000 1.697360 0.688076
v -0.700023 1.745463 0.759831
v 0.700023 1.745463 -0.759831
v 1.000000 1.876484 -0.000000
v -1.000000 1.876484 0.000000
v -0.270855 2.238353 0.409810
v -0.372610 2.354712 0.000000
v -0.000000 2.223712 -0.000000
v 0.270855 2.238353 0.409810
v -0.000000 2.223712 0.499614
v -0.000000 2.223712 -0.499614
v 0.270855 2.238353 -0.409810
v -0.270855 2.238353 -0.409810
v -0.428309 1.787009 -0.486143
v -0.000000 1.784813 -0.659807
v 0.428309 1.787009 -0.486144
v 0.625083 1.804463 -0.000000
v 0.428309 1.787009 0.486143
v -0.428309 1.787009 0.486144
v -0.625083 1.804463 0.000000
v 0.000000 1.784813 0.659807
v 0.456095 1.707360 -0.499614
v 0.700023 1.755463 -0.759831
v 1.000000 1.886484 -0.000000
v -0.456095 1.707360 -0.499614
v -0.669637 1.707360 0.000000
v -1.000000 1.886484 0.000000
v -0.456095 1.707360 0.499614
v -0.700023 1.755463 0.759831
v -0.000000 1.707360 -0.688076
v -0.000000 1.654712 -1.000000
v 0.000000 1.707360 0.688076
v 0.000000 1.654712 1.000000
v -0.700023 1.755463 -0.759831
v 0.456095 1.707360 0.499614
v 0.700023 1.755463 0.759831
v 0.669637 1.707360 -0.000000
v 0.456095 1.707360 -0.499614
v 0.669637 1.707360 -0.000000
v 1.000000 1.886484 -0.000000
v -0.669637 1.707360 0.000000
v -1.000000 1.886484 0.000000
v -0.456095 1.707360 0.499614
v -0.000000 1.707360 -0.688076
v 0.700023 1.755463 -0.759831
v 0.000000 1.707360 0.688076
v -0.700023 1.755463 0.759831
v 0.372610 2.354712 -0.000000
vn -0.3261 -0.9276 -0.1824
vn 0.0540 -0.9985 -0.0000
vn -0.3261 -0.9276 0.1824
vn 0.3599 -0.2763 0.8911
vn -0.3599 -0.2763 0.8911
vn -0.8599 -0.3610 0.3610
vn -0.8599 -0.3610 -0.3610
vn 0.8599 -0.3610 -0.3610
vn 0.8599 -0.3610 0.3610
vn -0.3599 -0.2763 -0.8911
vn 0.3599 -0.2763 -0.8911
vn 0.2585 -0.9639 0.0641
vn -0.4671 -0.8614 -0.1996
vn -0.2585 -0.9639 -0.0641
vn 0.0845 -0.9825 0.1658
vn -0.0845 -0.9825 -0.1658
vn -0.0545 -0.9898 -0.1319
vn 0.0545 -0.9898 0.1319
vn 0.4671 -0.8614 0.1996
vn 0.3668 -0.2781 -0.8877
vn -0.3668 -0.2781 -0.8877
vn 0.8472 -0.3887 0.3621
vn 0.8472 -0.3887 -0.3621
vn -0.8472 -0.3887 -0.3621
vn -0.8472 -0.3887 0.3621
vn -0.3668 -0.2781 0.8877
vn 0.3668 -0.2781 0.8877
vn 0.4671 -0.8614 -0.1996
vn -0.4671 -0.8614 0.1996
vn 0.0545 -0.9898 -0.1319
vn -0.0545 -0.9898 0.1319
vn -0.0540 -0.9985 -0.0000
vn 0.3261 -0.9276 -0.1824
vn 0.3261 -0.9276 0.1824
vn 0.2811 -0.3290 0.9015
vn -0.2811 -0.3290 0.9015
vn -0.8594 -0.3943 0.3254
vn -0.8594 -0.3943 -0.3254
vn 0.8594 -0.3943 -0.3254
vn 0.8594 -0.3943 0.3254
vn -0.2811 -0.3290 -0.9015
vn 0.2811 -0.3290 -0.9015
vn -0.2585 -0.9639 0.0641
vn -0.0845 -0.9825 0.1658
vn 0.0845 -0.9825 -0.1658
vn 0.2585 -0.9639 -0.0641
vn 0.3545 -0.3206 -0.8784
vn -0.3545 -0.3206 -0.8784
vn -0.3545 -0.3206 0.8784
vn 0.3545 -0.3206 0.8784
vn 0.3261 0.9276 0.1824
vn -0.0540 0.9985 -0.0000
vn 0.3261 0.9276 -0.1824
vn -0.3599 0.2763 -0.8911
vn 0.3599 0.2763 -0.8911
vn 0.8599 0.3610 -0.3610
vn 0.8599 0.3610 0.3610
vn -0.8599 0.3610 0.3610
vn -0.8599 0.3610 -0.3610
vn 0.3599 0.2763 0.8911
vn -0.3599 0.2763 0.8911
vn -0.2585 0.9639 -0.0641
vn 0.4671 0.8614 0.1996
vn 0.2585 0.9639 0.0641
vn -0.0845 0.9825 -0.1658
vn 0.0845 0.9825 0.1658
vn 0.0545 0.9898 0.1319
vn -0.0545 0.9898 -0.1319
vn -0.4671 0.8614 -0.1996
vn -0.3668 0.2781 0.8877
vn 0.3668 0.2781 0.8877
vn -0.8472 0.3887 -0.3621
vn -0.8472 0.3887 0.3621
vn 0.8472 0.3887 0.3621
vn 0.8472 0.3887 -0.3621
vn 0.3668 0.2781 -0.8877
vn -0.3668 0.2781 -0.8877
vn -0.4671 0.8614 0.1996
vn 0.4671 0.8614 -0.1996
vn -0.0545 0.9898 0.1319
vn 0.0545 0.9898 -0.1319
vn 0.0540 0.9985 -0.0000
vn -0.3261 0.9276 0.1824
vn -0.3261 0.9276 -0.1824
vn -0.2811 0.3290 -0.9015
vn 0.2811 0.3290 -0.9015
vn 0.8594 0.3943 -0.3254
vn 0.8594 0.3943 0.3254
vn -0.8594 0.3943 0.3254
vn -0.8594 0.3943 -0.3254
vn 0.2811 0.3290 0.9015
vn -0.2811 0.3290 0.9015
vn 0.2585 0.9639 -0.0641
vn 0.0845 0.9825 -0.1658
vn -0.0845 0.9825 0.1658
vn -0.2585 0.9639 0.0641
vn -0.3545 0.3206 0.8784
vn 0.3545 0.3206 0.8784
vn 0.3545 0.3206 -0.8784
vn -0.3545 0.3206 -0.8784
vn -0.9301 -0.0000 -0.3672
vn -0.0000 -0.0000 -1.0000
vn 0.7296 -0.0000 0.6839
vn 0.1020 -0.0000 0.9948
vn 0.3819 -0.0000 -0.9242
vn -0.3245 -0.0000 -0.9459
vn -0.3819 -0.0000 0.9242
vn 0.3245 -0.0000 -0.9459
vn 0.3245 -0.0000 0.9459
vn 0.9301 -0.0000 0.3672
vn -0.7296 -0.0000 -0.6839
vn -0.1020 -0.0000 -0.9948
vn -0.3245 -0.0000 0.9459
vn -0.6765 -0.0000 0.7365
vn -0.9195 -0.0000 0.3930
vn 0.9301 -0.0000 -0.3672
vn 0.6765 -0.0000 -0.7365
vn -0.0000 -0.0000 1.0000
vn 0.9195 -0.0000 -0.3930
vn -0.9301 -0.0000 0.3672
vt 0.650516 0.504348
vt 0.747148 0.540822
vt 0.775832 0.442541
vt 0.650511 0.380742
vt 0.633492 0.442546
vt 0.918773 0.363607
vt 0.854603 0.319185
vt 0.854607 0.565887
vt 0.872663 0.680841
vt 0.998466 0.616795
vt 0.998466 0.268263
vt 0.872651 0.204224
vt 0.702558 0.210923
vt 0.566454 0.311924
vt 0.566467 0.573172
vt 0.702577 0.674158
vt 0.524406 0.442551
vt 0.181768 0.167385
vt 0.141732 0.076753
vt 0.001534 0.267212
vt 0.408910 0.237653
vt 0.411600 0.393350
vt 0.501291 0.421815
vt 0.319621 0.519004
vt 0.358332 0.610210
vt 0.309639 0.146194
vt 0.335470 0.058173
vt 0.191454 0.538329
vt 0.164344 0.625964
vt 0.315343 0.147958
vt 0.493131 0.185461
vt 0.096589 0.450008
vt 0.013138 0.503422
vt 0.091631 0.294366
vt 0.462197 0.626296
vt 0.336029 0.655991
vt 0.345088 0.673481
vt 0.583367 0.661775
vt 0.590668 0.643482
vt 0.218092 0.754421
vt 0.202173 0.735561
vt 0.101258 0.854157
vt 0.717685 0.729878
vt 0.731679 0.709548
vt 0.843732 0.817682
vt 0.905649 0.931552
vt 0.829251 0.831032
vt 0.116978 0.866024
vt 0.050800 0.973548
vt 0.747141 0.344259
vt 0.918771 0.521462
vt 0.343728 0.060727
vt 0.463143 0.645556
vt 0.887320 0.937544
vt 0.069628 0.977715
s 1
usemtl Material.003
f 33/39/7 42/40/7 45/41/7
f 35/42/8 44/43/8 45/41/8
f 45/41/8 41/44/8 36/45/8
f 45/41/9 42/40/9 34/46/9
f 34/46/10 60/47/10 62/48/10
f 62/49/11 59/50/11 36/45/11
f 36/45/12 59/50/12 63/51/12
f 63/51/13 61/52/13 35/42/13
f 33/39/14 58/53/14 64/54/14
f 64/54/15 60/47/15 34/46/15
f 35/42/16 61/52/16 65/55/16
f 65/55/17 58/53/17 33/39/17
f 38/56/18 51/57/18 55/58/18
f 39/59/19 48/60/19 56/61/19
f 37/62/20 50/63/20 56/61/20
f 46/64/21 54/65/21 51/57/21
f 49/66/22 57/67/22 50/63/22
f 46/68/23 39/59/23 52/69/23
f 49/66/24 40/70/24 53/71/24
f 40/70/25 47/72/25 55/58/25
f 49/73/26 37/74/26 58/75/26
f 61/76/27 40/77/27 49/73/27
f 64/78/28 48/79/28 39/80/28
f 37/74/29 48/79/29 64/78/29
f 63/81/30 47/82/30 40/77/30
f 38/83/31 47/82/31 63/81/31
f 46/84/32 38/83/32 59/85/32
f 60/86/33 39/80/33 46/87/33
f 67/56/34 74/58/34 69/72/34
f 66/62/35 75/61/35 70/60/35
f 68/64/36 73/57/36 67/56/36
f 71/66/37 72/63/37 66/62/37
f 33/39/38 45/41/38 44/43/38
f 35/42/39 45/41/39 43/88/39
f 45/41/40 36/45/40 43/88/40
f 45/41/38 34/46/38 41/89/38
f 34/46/41 62/48/41 41/89/41
f 62/49/42 36/45/42 41/44/42
f 36/45/43 63/51/43 43/88/43
f 63/51/44 35/42/44 43/88/44
f 33/39/45 64/54/45 42/40/45
f 64/54/46 34/46/46 42/40/46
f 35/42/47 65/55/47 44/43/47
f 65/55/48 33/39/48 44/43/48
f 39/59/49 56/61/49 52/69/49
f 46/68/50 52/69/50 54/90/50
f 49/66/51 53/71/51 57/67/51
f 40/70/52 55/58/52 53/71/52
f 49/73/53 58/75/53 65/91/53
f 61/76/54 49/73/54 65/91/54
f 64/78/15 39/80/15 60/86/15
f 37/74/14 64/78/14 58/75/14
f 63/81/13 40/77/13 61/76/13
f 38/83/12 63/81/12 59/85/12
f 46/84/55 59/85/55 62/92/55
f 60/86/56 46/87/56 62/93/56
f 76/39/57 78/41/57 77/40/57
f 79/42/58 78/41/58 80/43/58
f 78/41/58 82/45/58 81/44/58
f 78/41/59 83/46/59 77/40/59
f 83/46/60 85/48/60 84/47/60
f 85/49/61 82/45/61 86/50/61
f 82/45/62 87/51/62 86/50/62
f 87/51/63 79/42/63 88/52/63
f 76/39/64 90/54/64 89/53/64
f 90/54/65 83/46/65 84/47/65
f 79/42/66 91/55/66 88/52/66
f 91/55/67 76/39/67 89/53/67
f 92/56/68 94/58/68 93/57/68
f 95/59/69 97/61/69 96/60/69
f 98/62/70 97/61/70 99/63/70
f 100/64/71 93/57/71 101/65/71
f 102/66/72 99/63/72 103/67/72
f 100/68/73 104/69/73 95/59/73
f 102/66/74 106/71/74 105/70/74
f 105/70/75 94/58/75 107/72/75
f 102/73/76 89/75/76 98/74/76
f 88/76/77 102/73/77 105/77/77
f 90/78/78 95/80/78 96/79/78
f 98/74/79 90/78/79 96/79/79
f 87/81/80 105/77/80 107/82/80
f 92/83/81 87/81/81 107/82/81
f 100/84/82 86/85/82 92/83/82
f 84/86/83 100/87/83 95/80/83
f 108/56/84 109/72/84 110/58/84
f 113/62/85 111/60/85 112/61/85
f 114/64/86 108/56/86 115/57/86
f 116/66/87 113/62/87 117/63/87
f 76/39/88 80/43/88 78/41/88
f 79/42/89 118/88/89 78/41/89
f 78/41/90 118/88/90 82/45/90
f 78/41/88 81/89/88 83/46/88
f 83/46/91 81/89/91 85/48/91
f 85/49/92 81/44/92 82/45/92
f 82/45/93 118/88/93 87/51/93
f 87/51/94 118/88/94 79/42/94
f 76/39/95 77/40/95 90/54/95
f 90/54/96 77/40/96 83/46/96
f 79/42/97 80/43/97 91/55/97
f 91/55/98 80/43/98 76/39/98
f 95/59/99 104/69/99 97/61/99
f 100/68/100 101/90/100 104/69/100
f 102/66/101 103/67/101 106/71/101
f 105/70/102 106/71/102 94/58/102
f 102/73/103 91/91/103 89/75/103
f 88/76/104 91/91/104 102/73/104
f 90/78/65 84/86/65 95/80/65
f 98/74/64 89/75/64 90/78/64
f 87/81/63 88/76/63 105/77/63
f 92/83/62 86/85/62 87/81/62
f 100/84/105 85/92/105 86/85/105
f 84/86/106 85/93/106 100/87/106
f 56/61/107 104/69/107 52/69/107
f 55/58/108 107/72/108 94/58/108
f 73/57/109 108/56/109 67/56/109
f 51/57/110 100/64/110 46/64/110
f 46/84/111 92/83/111 38/83/111
f 52/69/112 101/90/112 54/90/112
f 49/73/113 98/74/113 37/74/113
f 66/62/111 116/66/111 71/66/111
f 51/57/114 101/65/114 93/57/114
f 53/71/115 103/67/115 57/67/115
f 72/63/110 116/66/110 117/63/110
f 55/58/116 106/71/116 53/71/116
f 72/63/117 113/62/117 66/62/117
f 50/63/118 102/66/118 49/66/118
f 51/57/117 92/56/117 93/57/117
f 50/63/119 103/67/119 99/63/119
f 55/58/120 92/56/120 38/56/120
f 69/72/121 108/56/121 67/56/121
f 55/58/122 93/57/122 94/58/122
f 74/58/123 108/56/123 110/58/123
f 74/58/124 109/72/124 69/72/124
f 37/74/121 96/79/121 48/79/121
f 75/61/108 111/60/108 70/60/108
f 56/61/124 96/60/124 97/61/124
f 70/60/125 113/62/125 66/62/125
f 50/63/109 98/62/109 99/63/109
f 75/61/120 113/62/120 112/61/120
f 56/61/123 98/62/123 37/62/123
f 67/56/113 114/64/113 68/64/113
f 56/61/126 99/63/126 97/61/126
f 38/83/125 107/82/125 47/82/125
f 73/57/118 114/64/118 115/57/118
f 56/61/107 97/61/107 104/69/107
f 55/58/108 47/72/108 107/72/108
f 73/57/109 115/57/109 108/56/109
f 51/57/110 93/57/110 100/64/110
f 46/84/111 100/84/111 92/83/111
f 52/69/112 104/69/112 101/90/112
f 49/73/113 102/73/113 98/74/113
f 66/62/111 113/62/111 116/66/111
f 51/57/114 54/65/114 101/65/114
f 53/71/115 106/71/115 103/67/115
f 72/63/110 71/66/110 116/66/110
f 55/58/116 94/58/116 106/71/116
f 72/63/117 117/63/117 113/62/117
f 50/63/118 99/63/118 102/66/118
f 51/57/117 38/56/117 92/56/117
f 50/63/119 57/67/119 103/67/119
f 55/58/120 94/58/120 92/56/120
f 69/72/121 109/72/121 108/56/121
f 55/58/122 51/57/122 93/57/122
f 74/58/123 67/56/123 108/56/123
f 74/58/124 110/58/124 109/72/124
f 37/74/121 98/74/121 96/79/121
f 75/61/108 112/61/108 111/60/108
f 56/61/124 48/60/124 96/60/124
f 70/60/125 111/60/125 113/62/125
f 50/63/109 37/62/109 98/62/109
f 75/61/120 66/62/120 113/62/120
f 56/61/123 97/61/123 98/62/123
f 67/56/113 108/56/113 114/64/113
f 56/61/126 50/63/126 99/63/126
f 38/83/125 92/83/125 107/82/125
f 73/57/118 68/64/118 114/64/118
