# Blender 4.4.1
# www.blender.org
mtllib Player.mtl
o Cube
v 0.500000 0.500000 -0.300000
v 0.500000 -1.000000 -0.300000
v 0.500000 0.500000 0.300000
v 0.500000 -1.000000 0.300000
v -0.500000 0.500000 -0.300000
v -0.500000 -1.000000 -0.300000
v -0.500000 0.500000 0.300000
v -0.500000 -1.000000 0.300000
vn -0.0000 1.0000 -0.0000
vn -0.0000 -0.0000 1.0000
vn -1.0000 -0.0000 -0.0000
vn -0.0000 -1.0000 -0.0000
vn 1.0000 -0.0000 -0.0000
vn -0.0000 -0.0000 -1.0000
vt 0.715048 0.960943
vt 0.892321 0.854580
vt 0.892321 0.960943
vt 0.715048 0.588671
vt 0.892321 0.588671
vt 0.715048 0.854580
vt 0.608684 0.588671
vt 0.892321 0.482307
vt 0.715048 0.482307
vt 0.998684 0.854580
vt 0.998684 0.588671
vt 0.715048 0.216398
vt 0.608684 0.854580
vt 0.892321 0.216398
s 0
usemtl Material
f 5/1/1 3/2/1 1/3/1
f 3/2/2 8/4/2 4/5/2
f 7/6/3 6/7/3 8/4/3
f 2/8/4 8/4/4 6/9/4
f 1/10/5 4/5/5 2/11/5
f 5/12/6 2/8/6 6/9/6
f 5/1/1 7/6/1 3/2/1
f 3/2/2 7/6/2 8/4/2
f 7/6/3 5/13/3 6/7/3
f 2/8/4 4/5/4 8/4/4
f 1/10/5 3/2/5 4/5/5
f 5/12/6 1/14/6 2/8/6
o 立方体
v -0.800000 0.498707 0.600000
v -0.800000 1.698707 0.600000
v -0.800000 0.498707 -0.600000
v -0.800000 1.698707 -0.600000
v 0.800000 0.498707 0.600000
v 0.800000 1.698707 0.600000
v 0.800000 0.498707 -0.600000
v 0.800000 1.698707 -0.600000
vn -1.0000 -0.0000 -0.0000
vn -0.0000 -0.0000 -1.0000
vn 1.0000 -0.0000 -0.0000
vn -0.0000 -0.0000 1.0000
vn -0.0000 -1.0000 -0.0000
vn -0.0000 1.0000 -0.0000
vt 0.498545 0.215345
vt 0.711272 0.428072
vt 0.498545 0.428072
vt 0.498545 0.853527
vt 0.214909 0.640800
vt 0.498545 0.640800
vt 0.002182 0.215345
vt 0.214909 0.428072
vt 0.002182 0.428072
vt 0.214909 0.215345
vt 0.498545 0.002618
vt 0.214909 0.002618
vt 0.711272 0.215345
vt 0.214909 0.853527
s 0
usemtl マテリアル
f 10/15/7 11/16/7 9/17/7
f 12/18/8 15/19/8 11/20/8
f 16/21/9 13/22/9 15/23/9
f 14/24/10 9/17/10 13/22/10
f 15/19/11 9/17/11 11/20/11
f 12/25/12 14/24/12 16/26/12
f 10/15/7 12/27/7 11/16/7
f 12/18/8 16/28/8 15/19/8
f 16/21/9 14/24/9 13/22/9
f 14/24/10 10/15/10 9/17/10
f 15/19/11 13/22/11 9/17/11
f 12/25/12 10/15/12 14/24/12
