{
	"asset":{
		"generator":"Khronos glTF Blender I/O v4.4.56",
		"version":"2.0"
	},
	"scene":0,
	"scenes":[
		{
			"name":"Scene",
			"nodes":[
				2
			]
		}
	],
	"nodes":[
		{
			"name":"\u30dc\u30fc\u30f3"
		},
		{
			"mesh":0,
			"name":"\u30b9\u30b6\u30f3\u30cc",
			"skin":0
		},
		{
			"children":[
				1,
				0
			],
			"name":"\u30a2\u30fc\u30de\u30c1\u30e5\u30a2"
		}
	],
	"animations":[
		{
			"channels":[
				{
					"sampler":0,
					"target":{
						"node":0,
						"path":"translation"
					}
				},
				{
					"sampler":1,
					"target":{
						"node":0,
						"path":"rotation"
					}
				},
				{
					"sampler":2,
					"target":{
						"node":0,
						"path":"scale"
					}
				}
			],
			"name":"\u30a2\u30fc\u30de\u30c1\u30e5\u30a2\u30a2\u30af\u30b7\u30e7\u30f3",
			"samplers":[
				{
					"input":7,
					"interpolation":"CUBICSPLINE",
					"output":8
				},
				{
					"input":7,
					"interpolation":"CUBICSPLINE",
					"output":9
				},
				{
					"input":7,
					"interpolation":"CUBICSPLINE",
					"output":10
				}
			]
		}
	],
	"meshes":[
		{
			"name":"\u30b9\u30b6\u30f3\u30cc",
			"primitives":[
				{
					"attributes":{
						"POSITION":0,
						"NORMAL":1,
						"TEXCOORD_0":2,
						"JOINTS_0":3,
						"WEIGHTS_0":4
					},
					"indices":5
				}
			]
		}
	],
	"skins":[
		{
			"inverseBindMatrices":6,
			"joints":[
				0
			],
			"name":"\u30a2\u30fc\u30de\u30c1\u30e5\u30a2"
		}
	],
	"accessors":[
		{
			"bufferView":0,
			"componentType":5126,
			"count":1966,
			"max":[
				1.3671875,
				0.984375,
				0.8515625
			],
			"min":[
				-1.3671875,
				-0.984375,
				-0.8515625
			],
			"type":"VEC3"
		},
		{
			"bufferView":1,
			"componentType":5126,
			"count":1966,
			"type":"VEC3"
		},
		{
			"bufferView":2,
			"componentType":5126,
			"count":1966,
			"type":"VEC2"
		},
		{
			"bufferView":3,
			"componentType":5121,
			"count":1966,
			"type":"VEC4"
		},
		{
			"bufferView":4,
			"componentType":5126,
			"count":1966,
			"type":"VEC4"
		},
		{
			"bufferView":5,
			"componentType":5123,
			"count":2904,
			"type":"SCALAR"
		},
		{
			"bufferView":6,
			"componentType":5126,
			"count":1,
			"type":"MAT4"
		},
		{
			"bufferView":7,
			"componentType":5126,
			"count":2,
			"max":[
				0.9833333333333333
			],
			"min":[
				0
			],
			"type":"SCALAR"
		},
		{
			"bufferView":8,
			"componentType":5126,
			"count":6,
			"type":"VEC3"
		},
		{
			"bufferView":9,
			"componentType":5126,
			"count":6,
			"type":"VEC4"
		},
		{
			"bufferView":10,
			"componentType":5126,
			"count":6,
			"type":"VEC3"
		}
	],
	"bufferViews":[
		{
			"buffer":0,
			"byteLength":23592,
			"byteOffset":0,
			"target":34962
		},
		{
			"buffer":0,
			"byteLength":23592,
			"byteOffset":23592,
			"target":34962
		},
		{
			"buffer":0,
			"byteLength":15728,
			"byteOffset":47184,
			"target":34962
		},
		{
			"buffer":0,
			"byteLength":7864,
			"byteOffset":62912,
			"target":34962
		},
		{
			"buffer":0,
			"byteLength":31456,
			"byteOffset":70776,
			"target":34962
		},
		{
			"buffer":0,
			"byteLength":5808,
			"byteOffset":102232,
			"target":34963
		},
		{
			"buffer":0,
			"byteLength":64,
			"byteOffset":108040
		},
		{
			"buffer":0,
			"byteLength":8,
			"byteOffset":108104
		},
		{
			"buffer":0,
			"byteLength":72,
			"byteOffset":108112
		},
		{
			"buffer":0,
			"byteLength":96,
			"byteOffset":108184
		},
		{
			"buffer":0,
			"byteLength":72,
			"byteOffset":108280
		}
	],
	"buffers":[
		{
			"byteLength":108352,
			"uri":"suzanne.bin"
		}
	]
}
